# xmcd
#
# Track frame offsets:
#	150
#	19064
#	31130
#	52395
#	68303
#	86573
#	105413
#	117132
#	138324
#	154194
#	183849
#
# Disc length: 4440 seconds
#
# Revision: 4
# Processed by: cddbd v1.5.2PL0 Copyright (c) Steve Scherf et al.
# Submitted via: audiograbber 1.83.01
#
DISCID=8311560b
DTITLE=Curse feat. Gentleman - Widerstand (Maxi)
DYEAR=2003
DGENRE=Hip-Hop
TTITLE0=Curse feat. Gentleman - Widerstand
TTITLE1=Curse - Erinnert Ihr Euch?!
TTITLE2=Curse - Genauso Wie Du
TTITLE3=Italo Remo and Germany - W*A*S 
TTITLE4=Stress and Trauma - Seid Froh
TTITLE5=Curse feat. Gentleman - Widerstand (Instrumental)
TTITLE6=Curse - Erinnert Ihr Euch?! (Instrumental)
TTITLE7=Curse - Genauso Wie Du (Instrumental)
TTITLE8=Italo Remo and Germany - W*A*S (Instrumental)
TTITLE9=Stress and Trauma - Seid Froh (Instrumental)
TTITLE10=NONE - DATA
EXTD=kopiergeschützt YEAR: 2003
EXTT0=
EXTT1=
EXTT2=
EXTT3=
EXTT4=
EXTT5=
EXTT6=
EXTT7=
EXTT8=
EXTT9=
EXTT10=
PLAYORDER=
